PathFileType	4	(X/Y/Z)	/home/nbianco/projects/addbio/data/HamnerRunning2013/Processed/subject03//results/MarkerData/run300.trc
DataRate	CameraRate	NumFrames	NumMarkers	Units	OrigDataRate	OrigDataStartFrame	OrigNumFrames
100	100	9	45	m	100	107	214
Frame#	Time	C7			CLAV			LACR			LASI			LCAL			LFAradius			LFAsuperior			LFAulna			LLEL			LMEL			LMT5			LPSH			LPSI			LTB1			LTB2			LTB3			LTH1			LTH2			LTH3			LTOE			LUA1			LUA2			LUA3			RACR			RASI			RCAL			RFAradius			RFAsuperior			RFAulna			RLEL			RLMAL			RMEL			RMMAL			RMT5			RPSI			RTB1			RTB2			RTB3			RTH1			RTH2			RTH3			RTOE			RUA1			RUA2			RUA3		
		X1	Y1	Z1	X2	Y2	Z2	X3	Y3	Z3	X4	Y4	Z4	X5	Y5	Z5	X6	Y6	Z6	X7	Y7	Z7	X8	Y8	Z8	X9	Y9	Z9	X10	Y10	Z10	X11	Y11	Z11	X12	Y12	Z12	X13	Y13	Z13	X14	Y14	Z14	X15	Y15	Z15	X16	Y16	Z16	X17	Y17	Z17	X18	Y18	Z18	X19	Y19	Z19	X20	Y20	Z20	X21	Y21	Z21	X22	Y22	Z22	X23	Y23	Z23	X24	Y24	Z24	X25	Y25	Z25	X26	Y26	Z26	X27	Y27	Z27	X28	Y28	Z28	X29	Y29	Z29	X30	Y30	Z30	X31	Y31	Z31	X32	Y32	Z32	X33	Y33	Z33	X34	Y34	Z34	X35	Y35	Z35	X36	Y36	Z36	X37	Y37	Z37	X38	Y38	Z38	X39	Y39	Z39	X40	Y40	Z40	X41	Y41	Z41	X42	Y42	Z42	X43	Y43	Z43	X44	Y44	Z44	X45	Y45	Z45

108	1.53	0.877732	1.59592	-0.319975	0.991062	1.5071	-0.314516	0.880979	1.58294	-0.476774	0.948881	1.08848	-0.428815	0.995367	0.107095	-0.331695	0.888009	1.28762	-0.511777	0.716993	1.25265	-0.531035	0.881344	1.21979	-0.51912	0.645898	1.31652	-0.551906	0.644228	1.31069	-0.460956	1.16136	0.0626312	-0.413006	0.795369	1.55596	-0.46389	0.792186	1.11774	-0.353628	1.0706	0.449291	-0.423444	1.00047	0.335551	-0.435619	1.07925	0.257952	-0.393633	0.890742	0.86169	-0.482092	0.993056	0.774259	-0.486314	0.970759	0.665908	-0.460157	1.21856	0.0967061	-0.347806	0.761708	1.49221	-0.516854	0.698653	1.43423	-0.473024	0.674233	1.39471	-0.53216	0.944324	1.56515	-0.173189	0.968732	1.07677	-0.20206	0.363201	0.425158	-0.30402	1.02958	1.27883	-0.201645	0.907868	1.21288	-0.0568339	1.03515	1.21152	-0.191864	0.864173	1.25527	-0.00595936	0.39701	0.392046	-0.22667	0.801919	1.24661	-0.0735637	0.428051	0.363294	-0.301212	0.355113	0.288947	-0.179367	0.799599	1.11272	-0.262344	0.694157	0.44863	-0.241777	0.622418	0.469522	-0.202896	0.51705	0.394009	-0.239473	0.844237	0.814422	-0.160568	0.897067	0.736419	-0.197916	0.809971	0.651082	-0.197535	0.395122	0.215542	-0.231073	0.91165	1.42471	-0.074373	0.830674	1.37959	-0.0645927	0.84634	1.32404	-0.0236358
109	1.54	0.87728	1.58844	-0.321106	0.990555	1.49944	-0.31485	0.882557	1.57381	-0.478643	0.947222	1.08112	-0.430423	0.971286	0.0996032	-0.332684	0.894549	1.27574	-0.514285	0.724204	1.23938	-0.53657	0.888556	1.20787	-0.521025	0.65306	1.30265	-0.559227	0.649619	1.29702	-0.468531	1.13857	0.0564756	-0.410528	0.796679	1.54648	-0.467801	0.790628	1.10935	-0.353247	1.06498	0.439416	-0.4203	0.991321	0.328608	-0.436632	1.06418	0.247623	-0.391537	0.889058	0.85399	-0.48064	0.993245	0.768473	-0.482401	0.970901	0.659284	-0.458444	1.19592	0.0852498	-0.342445	0.764553	1.48081	-0.52224	0.701091	1.42198	-0.479983	0.679568	1.38106	-0.5393	0.943129	1.55815	-0.173962	0.968106	1.06964	-0.202355	0.374094	0.43859	-0.302632	1.02687	1.26183	-0.195822	0.897812	1.20551	-0.0532236	1.02994	1.19465	-0.18341	0.853876	1.25185	-0.00555983	0.406936	0.403955	-0.225606	0.794139	1.24297	-0.0744509	0.435776	0.373513	-0.300262	0.360836	0.303298	-0.177662	0.798638	1.10433	-0.262216	0.706203	0.443893	-0.241435	0.635818	0.468736	-0.202984	0.526522	0.399169	-0.238832	0.849915	0.804552	-0.161748	0.906086	0.728363	-0.198212	0.821592	0.6407	-0.19877	0.396643	0.227931	-0.229429	0.906223	1.41949	-0.074255	0.824161	1.37577	-0.0668519	0.837695	1.32066	-0.0243324
110	1.55	0.876678	1.57968	-0.322123	0.990095	1.49072	-0.315061	0.884305	1.56368	-0.480448	0.945564	1.07254	-0.432085	0.942514	0.0930173	-0.33231	0.901567	1.2626	-0.516835	0.732031	1.22508	-0.542774	0.896196	1.19476	-0.523332	0.660984	1.28783	-0.567084	0.655704	1.28223	-0.476685	1.11082	0.0542107	-0.408958	0.798257	1.53579	-0.471452	0.788289	1.09971	-0.352936	1.05806	0.428219	-0.41681	0.979753	0.321265	-0.436314	1.04537	0.23689	-0.388215	0.887086	0.844845	-0.479698	0.993039	0.761548	-0.476763	0.970583	0.651334	-0.456943	1.16887	0.0774855	-0.339131	0.767803	1.46837	-0.527613	0.704103	1.40839	-0.4873	0.685558	1.36632	-0.546657	0.941631	1.54992	-0.174509	0.967263	1.06171	-0.202519	0.387515	0.450268	-0.301033	1.02345	1.2436	-0.189148	0.887321	1.1973	-0.0491929	1.02378	1.17676	-0.174219	0.843354	1.24742	-0.00504951	0.419463	0.414191	-0.224428	0.786072	1.23827	-0.0751609	0.446334	0.382476	-0.299243	0.369827	0.315758	-0.176042	0.797341	1.09515	-0.262387	0.719909	0.438518	-0.24066	0.651018	0.467018	-0.202627	0.538411	0.403191	-0.238114	0.855872	0.794222	-0.162506	0.915632	0.719858	-0.197781	0.833957	0.629958	-0.199583	0.401935	0.238971	-0.22802	0.900577	1.41323	-0.0741002	0.817547	1.37092	-0.0690238	0.828954	1.31628	-0.0249999
111	1.56	0.875921	1.56988	-0.323242	0.989848	1.48106	-0.315214	0.886059	1.55291	-0.482329	0.943431	1.06301	-0.433544	0.911727	0.0888542	-0.330578	0.909056	1.24844	-0.519238	0.740446	1.20991	-0.549458	0.904255	1.18065	-0.526024	0.669624	1.27229	-0.575355	0.662414	1.26651	-0.485232	1.08056	0.05466	-0.407884	0.800072	1.52396	-0.474897	0.784754	1.08971	-0.352629	1.05041	0.417437	-0.412556	0.966476	0.315168	-0.43414	1.02464	0.227721	-0.383407	0.885111	0.835305	-0.48003	0.992115	0.753428	-0.471967	0.969688	0.642732	-0.455636	1.13957	0.0734807	-0.337587	0.771392	1.45493	-0.53298	0.707617	1.39361	-0.494774	0.692214	1.35071	-0.554138	0.939723	1.54067	-0.174678	0.966159	1.05273	-0.20308	0.403297	0.460052	-0.299267	1.01925	1.22446	-0.181495	0.876354	1.18837	-0.0448885	1.01665	1.15817	-0.164063	0.83256	1.24189	-0.00432956	0.434427	0.422604	-0.22307	0.777781	1.23253	-0.075751	0.459545	0.389954	-0.298018	0.381848	0.326149	-0.174406	0.795274	1.08544	-0.262705	0.73523	0.432726	-0.239686	0.667881	0.46434	-0.201896	0.552595	0.406048	-0.237446	0.861908	0.783658	-0.162983	0.925332	0.710978	-0.196735	0.846942	0.618758	-0.200047	0.410769	0.248356	-0.226756	0.89469	1.40577	-0.0738925	0.810872	1.36495	-0.071028	0.820138	1.3108	-0.0256287
112	1.57	0.875162	1.55981	-0.32463	0.98989	1.47091	-0.315331	0.887659	1.54208	-0.484395	0.940346	1.05309	-0.434759	0.881411	0.0876408	-0.328281	0.917088	1.23358	-0.521416	0.749491	1.1941	-0.556306	0.912788	1.16581	-0.528939	0.678957	1.25629	-0.583927	0.669736	1.25011	-0.494029	1.05021	0.0558041	-0.406733	0.801993	1.51154	-0.478385	0.780138	1.08037	-0.352209	1.04263	0.408912	-0.407838	0.952621	0.31187	-0.430999	1.00406	0.221691	-0.378201	0.883324	0.827015	-0.481542	0.990245	0.744913	-0.469899	0.968218	0.63475	-0.454497	1.11022	0.0716113	-0.336679	0.775379	1.44063	-0.538446	0.711508	1.37791	-0.502185	0.699487	1.3345	-0.561697	0.937334	1.53096	-0.174446	0.964646	1.0428	-0.204136	0.421212	0.467853	-0.29727	1.01426	1.20472	-0.172748	0.864829	1.17897	-0.040585	1.00861	1.13922	-0.152941	0.82135	1.23545	-0.00335907	0.451651	0.429081	-0.221428	0.769412	1.22599	-0.0764003	0.475183	0.395859	-0.296578	0.396725	0.334257	-0.172679	0.792185	1.07561	-0.262958	0.752169	0.427007	-0.238918	0.686292	0.46092	-0.200978	0.568931	0.407834	-0.236849	0.867987	0.773287	-0.163468	0.935005	0.702171	-0.195425	0.860514	0.607353	-0.200365	0.422935	0.25582	-0.225604	0.888545	1.3971	-0.0736565	0.804045	1.3579	-0.0728424	0.811122	1.30433	-0.0262436
113	1.58	0.874653	1.5506	-0.326246	0.990084	1.46107	-0.315342	0.889144	1.53179	-0.486648	0.936306	1.04357	-0.435951	0.852409	0.0884687	-0.326438	0.925885	1.21839	-0.523449	0.759373	1.17814	-0.563048	0.921985	1.15062	-0.531815	0.689159	1.2402	-0.592595	0.677857	1.23332	-0.502946	1.02079	0.0563723	-0.405461	0.803957	1.49947	-0.482198	0.775123	1.07235	-0.351578	1.03464	0.403122	-0.403606	0.938945	0.311395	-0.428587	0.98436	0.218726	-0.374291	0.881288	0.820773	-0.483364	0.98719	0.737142	-0.470446	0.965976	0.628258	-0.453618	1.08167	0.0702334	-0.335671	0.780065	1.42591	-0.543964	0.715806	1.36176	-0.509392	0.707374	1.31801	-0.569263	0.934519	1.52153	-0.17397	0.962507	1.03259	-0.205158	0.440829	0.473566	-0.294926	1.00845	1.1847	-0.163096	0.852784	1.16953	-0.0365912	0.999736	1.12032	-0.141113	0.80969	1.22864	-0.00237049	0.470866	0.433511	-0.219446	0.761087	1.21902	-0.077327	0.492943	0.400198	-0.295073	0.414366	0.339798	-0.170857	0.788252	1.06631	-0.263003	0.770682	0.422049	-0.238867	0.706134	0.457291	-0.200086	0.58723	0.408701	-0.236239	0.874086	0.763873	-0.164155	0.944671	0.694365	-0.194165	0.874688	0.596641	-0.200656	0.438246	0.261109	-0.224604	0.882159	1.38765	-0.0734896	0.79689	1.35013	-0.0745796	0.801715	1.29726	-0.0269895
114	1.59	0.874509	1.54312	-0.327835	0.990122	1.45235	-0.315116	0.890785	1.52248	-0.488961	0.931857	1.03518	-0.437372	0.823985	0.0897553	-0.325658	0.935802	1.20338	-0.525339	0.770488	1.16268	-0.569551	0.932187	1.1356	-0.534354	0.700694	1.2245	-0.600989	0.687094	1.21653	-0.511798	0.991919	0.0562702	-0.40458	0.806125	1.48874	-0.486316	0.770525	1.06572	-0.350799	1.0255	0.398713	-0.400621	0.925298	0.311961	-0.42798	0.964578	0.217126	-0.372471	0.878012	0.815805	-0.484552	0.982722	0.73067	-0.472019	0.962344	0.622932	-0.453091	1.05343	0.068791	-0.334772	0.785806	1.41157	-0.549021	0.720766	1.34572	-0.516352	0.716066	1.30169	-0.576687	0.931477	1.51311	-0.173489	0.959556	1.02307	-0.205527	0.461475	0.477048	-0.292204	1.00177	1.16477	-0.153143	0.840461	1.16069	-0.0331405	0.990074	1.10192	-0.128892	0.797887	1.22226	-0.00191092	0.491675	0.435785	-0.217225	0.752855	1.21214	-0.078708	0.512412	0.402941	-0.293625	0.434685	0.342495	-0.169018	0.784003	1.05822	-0.262894	0.7906	0.418541	-0.239775	0.727198	0.454163	-0.199328	0.607236	0.408794	-0.235511	0.880106	0.756231	-0.164999	0.954468	0.688709	-0.193088	0.889496	0.587948	-0.200844	0.456558	0.263993	-0.223855	0.875584	1.37844	-0.0735184	0.789326	1.34238	-0.0765701	0.791878	1.29029	-0.0281636
115	1.6	0.874503	1.53747	-0.329104	0.989687	1.44517	-0.314547	0.892906	1.5144	-0.491137	0.927706	1.02827	-0.438964	0.795096	0.0904831	-0.325842	0.947117	1.18934	-0.52673	0.783263	1.14852	-0.575674	0.94375	1.12159	-0.536256	0.714087	1.20984	-0.608636	0.69763	1.20036	-0.520271	0.962773	0.0559528	-0.404512	0.808786	1.4799	-0.490293	0.766875	1.06026	-0.350264	1.01403	0.39369	-0.398929	0.910701	0.311381	-0.428812	0.943253	0.214982	-0.372089	0.872834	0.810766	-0.484805	0.976753	0.725044	-0.47321	0.956523	0.617634	-0.452868	1.02462	0.0675451	-0.334504	0.792598	1.39859	-0.552762	0.72666	1.33039	-0.523022	0.725913	1.28621	-0.583746	0.928404	1.50617	-0.173149	0.955804	1.01503	-0.205153	0.482401	0.478152	-0.289237	0.9941	1.14538	-0.143614	0.828228	1.15313	-0.0303179	0.979563	1.0846	-0.116567	0.786533	1.21713	-0.00251576	0.513571	0.435876	-0.215001	0.744761	1.20604	-0.0806346	0.533138	0.403979	-0.292222	0.457449	0.342226	-0.167251	0.779955	1.05175	-0.262886	0.811646	0.416928	-0.241246	0.749129	0.452097	-0.19867	0.628607	0.408227	-0.234605	0.885981	0.750788	-0.165736	0.964533	0.686049	-0.192222	0.904944	0.582367	-0.200752	0.477803	0.264344	-0.223423	0.868857	1.3708	-0.0738133	0.781516	1.33563	-0.0792818	0.781888	1.28439	-0.030087
116	1.61	0.874162	1.53319	-0.329946	0.988635	1.43953	-0.313608	0.895644	1.50785	-0.492954	0.924301	1.02283	-0.440313	0.765418	0.090694	-0.326396	0.959748	1.17752	-0.52701	0.79783	1.1364	-0.580985	0.956793	1.1098	-0.537204	0.729405	1.19693	-0.615108	0.709301	1.18574	-0.527922	0.932989	0.0557496	-0.405103	0.812069	1.47301	-0.493611	0.764324	1.05579	-0.350548	0.999579	0.387096	-0.398158	0.893944	0.308828	-0.429885	0.91978	0.211629	-0.372006	0.866212	0.805339	-0.484601	0.969451	0.719349	-0.473741	0.94813	0.61164	-0.452862	0.994972	0.0667411	-0.334899	0.799918	1.38778	-0.554693	0.733475	1.31652	-0.52923	0.737119	1.27251	-0.590161	0.925329	1.50089	-0.172922	0.95159	1.00891	-0.204448	0.503059	0.476776	-0.286254	0.985357	1.12731	-0.134934	0.816335	1.14735	-0.0280807	0.968089	1.06903	-0.104569	0.776076	1.21385	-0.00425435	0.536032	0.433885	-0.212976	0.73687	1.20148	-0.0830637	0.554766	0.403217	-0.290823	0.482195	0.339122	-0.1656	0.776321	1.047	-0.263255	0.83352	0.417171	-0.242413	0.771474	0.451189	-0.198034	0.650928	0.407062	-0.23353	0.891793	0.747471	-0.166032	0.974888	0.686547	-0.191599	0.920976	0.580207	-0.200271	0.501935	0.262224	-0.223236	0.861966	1.36566	-0.0743506	0.773799	1.33072	-0.0829987	0.772208	1.28037	-0.0328593
